<?xml version="1.0" encoding="UTF-8" standalone="no"?>
<!-- Created with Inkscape (http://www.inkscape.org/) -->

<svg
   xmlns:dc="http://purl.org/dc/elements/1.1/"
   xmlns:cc="http://creativecommons.org/ns#"
   xmlns:rdf="http://www.w3.org/1999/02/22-rdf-syntax-ns#"
   xmlns:svg="http://www.w3.org/2000/svg"
   xmlns="http://www.w3.org/2000/svg"
   xmlns:sodipodi="http://sodipodi.sourceforge.net/DTD/sodipodi-0.dtd"
   xmlns:inkscape="http://www.inkscape.org/namespaces/inkscape"
   width="240mm"
   height="120mm"
   viewBox="0 0 240 120"
   version="1.1"
   id="svg8"
   inkscape:version="0.92.3 (2405546, 2018-03-11)"
   sodipodi:docname="algo.svg">
  <defs
     id="defs2" />
  <sodipodi:namedview
     id="base"
     pagecolor="#ffffff"
     bordercolor="#666666"
     borderopacity="1.0"
     inkscape:pageopacity="0.0"
     inkscape:pageshadow="2"
     inkscape:zoom="0.99437388"
     inkscape:cx="92.195601"
     inkscape:cy="180.70923"
     inkscape:document-units="mm"
     inkscape:current-layer="layer1"
     showgrid="false"
     showborder="true"
     width="200mm"
     showguides="true"
     inkscape:guide-bbox="true"
     inkscape:window-width="1920"
     inkscape:window-height="1031"
     inkscape:window-x="0"
     inkscape:window-y="0"
     inkscape:window-maximized="1">
    <inkscape:grid
       type="xygrid"
       id="grid815"
       units="mm"
       spacingx="10"
       spacingy="10"
       empspacing="4"
       dotted="false" />
  </sodipodi:namedview>
  <metadata
     id="metadata5">
    <rdf:RDF>
      <cc:Work
         rdf:about="">
        <dc:format>image/svg+xml</dc:format>
        <dc:type
           rdf:resource="http://purl.org/dc/dcmitype/StillImage" />
        <dc:title></dc:title>
      </cc:Work>
    </rdf:RDF>
  </metadata>
  <g
     inkscape:label="Layer 1"
     inkscape:groupmode="layer"
     id="layer1"
     transform="translate(0,-177)">
    <ellipse
       style="fill:#ffff00;fill-opacity:1;stroke:#000000;stroke-width:0.26499999;stroke-miterlimit:4;stroke-dasharray:none;stroke-opacity:1"
       id="path816"
       cx="76.897217"
       cy="218.77238"
       rx="10.111053"
       ry="9.5788918" />
    <path
       style="fill:none;stroke:#000000;stroke-width:0.26458332px;stroke-linecap:butt;stroke-linejoin:miter;stroke-opacity:1"
       d="m 54.280387,197.75204 c 32.727881,-6.11985 33.792202,-28.20452 41.24245,1.3304 7.450253,29.53491 32.993963,56.94119 3.459046,51.61958 -29.534916,-5.32161 -81.952742,16.2309 -62.794959,-9.04673 19.157784,-25.27763 -31.1313978,-41.24245 3.459044,-38.04949 34.590444,3.19297 14.634419,-5.85376 14.634419,-5.85376 z"
       id="path818"
       inkscape:connector-curvature="0" />
    <path
       style="fill:#ffffff;fill-opacity:1;stroke:#000000;stroke-width:1.00724161;stroke-miterlimit:4;stroke-dasharray:none;stroke-opacity:1"
       d="m 135.55509,289.09849 c -17.78113,-4.31114 -17.57198,-16.72281 0.71298,-42.31096 13.3382,-18.6656 18.08971,-31.3402 18.06233,-48.18103 -0.0195,-12.01375 -1.99938,-20.0282 -7.98868,-32.33838 -5.49899,-11.3024 -13.16369,-22.18268 -26.16538,-37.14257 -13.03952,-15.00341 -16.11398,-19.34507 -16.11398,-22.75565 0,-2.46274 0.61621,-3.24872 3.48751,-4.44843 4.69714,-1.962591 25.00613,-1.91541 48.3428,0.11232 22.8556,1.98592 53.28174,2.27403 60.9937,0.57754 6.58139,-1.44778 10.87192,-4.376303 10.87192,-7.420697 0,-2.736237 -7.37444,-9.778872 -14.03618,-13.404649 l -5.20679,-2.83389 11.12074,-2.734273 c 28.7032,-7.0573 49.82098,-15.930585 80.00245,-33.615502 25.01337,-14.656651 30.75268,-16.648382 37.66832,-13.072164 6.08551,3.146943 12.2922,16.226218 18.80184,39.62085 1.94492,6.989743 5.12122,18.365449 7.05845,25.279347 6.37279,22.744248 14.92068,44.149638 37.34813,93.526188 18.75019,41.28063 23.40202,53.83113 24.91757,67.22695 1.30124,11.50143 -3.34493,19.66652 -13.06029,22.95193 -6.46871,2.18751 -22.58781,2.17967 -35.27403,-0.0171 -15.47695,-2.68005 -27.93332,-3.67525 -45.96922,-3.67272 -26.52572,0.004 -47.50322,1.81956 -98.84553,8.55619 -45.5232,5.97309 -61.65827,7.53469 -76.93283,7.44575 -8.02012,-0.0467 -16.92825,-0.65376 -19.79583,-1.34902 z m 171.985,-97.89872 c 8.42595,-3.94299 13.66212,-8.79271 17.8685,-16.54975 3.27005,-6.03038 3.41833,-6.76184 3.41833,-16.86322 0,-9.63974 -0.24703,-11.0285 -2.8364,-15.94548 -5.68738,-10.79982 -16.40189,-18.33568 -29.18233,-20.52488 -16.72705,-2.86522 -34.73472,6.27088 -41.71501,21.16391 -2.36486,5.04562 -2.69494,6.98878 -2.68545,15.80928 0.0101,9.05494 0.29133,10.59121 2.8271,15.42428 5.07963,9.68159 15.0819,17.60524 25.56782,20.25447 2.07643,0.5246 7.49052,0.7954 12.03132,0.60179 6.59033,-0.28101 9.55733,-0.961 14.70612,-3.3704 z"
       id="path820"
       inkscape:connector-curvature="0"
       transform="matrix(0.26458333,0,0,0.26458333,0,177)" />
    <path
       style="fill:#ffffff;fill-opacity:1;stroke:#000000;stroke-width:1.00724161;stroke-miterlimit:4;stroke-dasharray:none;stroke-opacity:1"
       d="m 138.71868,288.5326 c -10.15645,-1.49218 -15.08275,-5.75228 -14.97759,-12.95212 0.0916,-6.2724 3.57513,-13.57982 13.87261,-29.10077 10.00297,-15.07705 11.73523,-18.38144 14.87005,-28.3656 3.09503,-9.85746 3.339,-28.3781 0.49662,-37.7 -4.86677,-15.96111 -13.20893,-29.43683 -32.37278,-52.29422 -13.10522,-15.63104 -16.23963,-20.35808 -15.235,-22.9761 1.5493,-4.0374 16.21302,-4.62822 51.48682,-2.07445 26.16923,1.89462 59.60679,1.58358 64.36211,-0.5987 4.2765,-1.96254 7.54243,-5.069347 7.54243,-7.174937 0,-2.534635 -5.33492,-8.313908 -11.1575,-12.086809 -2.71317,-1.758068 -4.93303,-3.483745 -4.93303,-3.834838 0,-0.351093 4.41233,-1.69565 9.80517,-2.987906 23.46491,-5.622759 45.17917,-14.661757 73.43631,-30.569331 26.09866,-14.692447 31.53305,-17.136576 36.59316,-16.457873 9.77985,1.311753 14.8133,12.007582 28.47489,60.507684 7.31772,25.97869 12.82749,40.1835 35.70672,92.05596 10.36828,23.50726 20.0167,45.90829 21.44093,49.78007 8.33985,22.67191 8.55335,33.11513 0.8348,40.83368 -2.03348,2.03349 -5.49723,4.19696 -7.69721,4.80773 -6.46028,1.79352 -24.22247,1.3104 -39.34937,-1.07027 -11.73072,-1.84618 -18.29047,-2.2008 -41.58342,-2.24798 -31.09586,-0.063 -35.78288,0.31959 -97.54882,7.96238 -61.53128,7.61374 -78.67257,8.80628 -94.0679,6.5444 z m 158.17019,-93.4791 c 12.85124,-1.85874 23.45337,-9.12089 29.28267,-20.05776 2.99706,-5.62306 3.15821,-6.49721 3.15821,-17.13172 0,-10.07289 -0.26428,-11.72783 -2.61293,-16.36269 -5.23774,-10.33618 -14.85046,-17.34574 -28.35911,-20.67933 -16.48024,-4.06691 -36.80023,5.69135 -43.98452,21.12266 -2.12734,4.56936 -2.46078,6.74713 -2.46928,16.12699 -0.009,9.6778 0.2696,11.39566 2.58786,15.97054 5.14088,10.14504 16.98382,19.16405 27.50328,20.94517 6.4253,1.08791 7.78753,1.09395 14.89382,0.0662 z"
       id="path822"
       inkscape:connector-curvature="0"
       transform="matrix(0.26458333,0,0,0.26458333,0,177)" />
    <path
       style="fill:#ffffff;fill-opacity:1;stroke:#000000;stroke-width:1.00724161;stroke-miterlimit:4;stroke-dasharray:none;stroke-opacity:1"
       d="m 140.26605,287.88855 c -11.53322,-2.31963 -15.08529,-5.22209 -15.08407,-12.32548 0.001,-5.96144 3.3365,-13.01085 14.02157,-29.63405 13.83459,-21.52302 16.41034,-29.11792 16.42081,-48.41873 0.006,-10.81502 -0.30776,-12.97856 -3.02102,-20.83955 -5.10517,-14.79103 -13.2351,-27.39983 -33.75628,-52.35297 -5.3492,-6.50446 -10.45223,-13.23103 -11.34007,-14.94793 -1.48444,-2.87058 -1.48288,-3.25312 0.0194,-4.75652 2.13174,-2.13338 21.37492,-2.19688 60.00787,-0.19799 20.32136,1.05143 31.30463,1.17403 40.9438,0.45703 12.51028,-0.93057 13.36434,-1.13446 16.9808,-4.05374 2.09438,-1.690637 3.94983,-4.024851 4.1232,-5.187142 0.37008,-2.480947 -6.22927,-10.087261 -11.6684,-13.448828 -4.25815,-2.631681 -4.97632,-2.230441 12.86335,-7.18671 21.75368,-6.043674 42.03241,-15.067086 74.7633,-33.267389 17.23631,-9.584394 23.16245,-12.001782 27.45007,-11.197419 3.9705,0.74487 8.87518,6.110054 11.93867,13.059582 2.74868,6.235392 9.38029,26.411204 13.57031,41.285888 8.05638,28.600398 14.20918,44.651608 37.97095,99.057308 8.81739,20.18858 17.66566,40.79353 19.66281,45.78877 3.53389,8.8389 7.71298,24.07312 7.71587,28.12709 0.006,8.08631 -6.37932,16.52197 -14.10301,18.63218 -5.38047,1.47 -24.23911,0.78309 -40.69269,-1.48219 -13.15557,-1.81123 -62.25657,-2.13496 -79.44698,-0.52382 -6.08423,0.57024 -27.80645,3.045 -48.27158,5.49948 -20.46514,2.45448 -43.54499,5.17874 -51.28856,6.05391 -14.34802,1.6216 -45.22731,2.7749 -49.78007,1.85922 z m 158.36678,-92.40202 c 13.84391,-2.93249 24.08358,-10.679 29.36505,-22.21526 2.34588,-5.12407 2.51967,-6.4704 2.17026,-16.81266 -0.34366,-10.1725 -0.66162,-11.75513 -3.34077,-16.62824 -5.51721,-10.03529 -17.17867,-17.81573 -30.23348,-20.17156 -15.74577,-2.84144 -34.42629,6.10575 -42.25623,20.23895 -2.81732,5.08531 -2.94641,5.86907 -2.94641,17.88904 0,11.28131 0.24338,13.02715 2.37276,17.02039 5.22302,9.79477 17.57547,18.99056 28.34537,21.10173 6.54215,1.28243 8.74054,1.22623 16.52345,-0.42239 z"
       id="path824"
       inkscape:connector-curvature="0"
       transform="matrix(0.26458333,0,0,0.26458333,0,177)" />
    <path
       style="fill:#ffffff;fill-opacity:1;stroke:#000000;stroke-width:1.00724161;stroke-miterlimit:4;stroke-dasharray:none;stroke-opacity:1"
       d="m 137.97064,286.41892 c -16.65434,-3.92163 -15.93092,-10.76635 4.69402,-44.41265 10.89618,-17.77537 12.92945,-23.91741 13.48499,-40.73509 0.27038,-8.18535 -0.007,-15.17608 -0.71698,-18.10184 -3.74382,-15.41715 -12.74712,-30.67296 -33.37799,-56.55793 -15.22885,-19.10721 -15.45758,-19.46667 -13.4482,-21.1343 1.99966,-1.65957 24.11061,-1.64624 62.08837,0.0374 34.12127,1.51271 49.30733,0.52467 54.65753,-3.55612 6.97452,-5.319727 6.49351,-8.457653 -2.60034,-16.963891 -2.85004,-2.665875 -5.03915,-4.957694 -4.86469,-5.092929 0.17446,-0.135236 5.74775,-1.865359 12.38509,-3.844719 20.99156,-6.260014 29.56147,-9.794143 53.8027,-22.187582 12.99813,-6.645356 27.93215,-14.272377 33.18671,-16.948938 13.04302,-6.643832 14.83255,-6.887521 19.64201,-2.674756 6.23828,5.464309 10.87718,17.346754 23.10347,59.179089 5.84693,20.005286 13.46231,39.490186 35.17767,90.006386 26.61713,61.91916 29.69815,71.33449 26.27571,80.29603 -2.14611,5.61951 -7.21233,10.24459 -12.9222,11.79702 -4.56921,1.24229 -24.25931,0.62209 -35.46264,-1.11702 -10.54079,-1.63625 -64.01904,-2.35633 -79.44698,-1.06975 -7.74357,0.64577 -35.04158,3.64334 -60.66225,6.66127 -57.17291,6.73457 -85.52406,8.65068 -94.996,6.42029 z m 159.51474,-89.89707 c 14.01639,-2.96978 24.4774,-10.14472 30.41429,-20.86041 2.82101,-5.09175 2.9361,-5.80676 2.87706,-17.87464 -0.0534,-10.90911 -0.35328,-13.13197 -2.26891,-16.81681 -10.02187,-19.27776 -35.90291,-27.93235 -55.75255,-18.64358 -7.98898,3.73849 -15.02452,9.98822 -18.95194,16.83518 -2.79859,4.87897 -2.89603,5.5056 -2.89603,18.62521 0,13.18658 0.085,13.72452 2.95918,18.7358 5.28852,9.2207 16.52795,17.376 27.69451,20.09507 6.65452,1.62039 7.85867,1.61315 15.92439,-0.0958 z"
       id="path826"
       inkscape:connector-curvature="0"
       transform="matrix(0.26458333,0,0,0.26458333,0,177)" />
    <path
       style="fill:#ffffff;fill-opacity:1;stroke:#000000;stroke-width:1.00724161;stroke-miterlimit:4;stroke-dasharray:none;stroke-opacity:1"
       d="m 136.96873,285.15651 c -2.6432,-0.75143 -5.966,-2.45111 -7.38401,-3.77708 -2.13056,-1.99227 -2.49142,-3.06514 -2.07843,-6.17935 0.65345,-4.92751 5.16844,-14.4646 13.13373,-27.74259 13.38633,-22.31475 15.51913,-28.35783 16.3858,-46.42739 0.71279,-14.86134 -0.50718,-20.99727 -6.79798,-34.19098 -5.32909,-11.17672 -11.94648,-21.01075 -28.02847,-41.65279 -7.25523,-9.31246 -13.02163,-17.44006 -12.81422,-18.06133 0.40906,-1.22529 26.35828,-1.44255 75.63268,-0.63325 30.88321,0.50724 36.58689,-0.19528 42.29815,-5.20983 5.21257,-4.576695 4.76805,-7.640095 -2.16303,-14.906618 l -5.62234,-5.894421 14.77994,-4.677072 c 20.25334,-6.40912 27.56203,-9.597914 62.33531,-27.197012 16.59336,-8.398059 31.39436,-15.555889 32.89111,-15.906288 2.15892,-0.505415 3.49453,0.0401 6.46216,2.639368 4.93196,4.319785 8.90878,13.16799 15.93637,35.457513 3.139,9.956014 7.64756,24.211216 10.01901,31.67823 5.01624,15.79466 13.25924,36.55885 31.73859,79.9498 20.60403,48.37988 26.3526,63.37614 27.67528,72.19641 1.27952,8.53239 -4.91994,17.45502 -13.83552,19.91294 -3.28901,0.90674 -8.03377,0.90335 -20.37778,-0.0146 -59.1302,-4.39693 -79.25128,-3.97801 -140.24768,2.9199 -76.9462,8.70162 -100.62652,10.3637 -109.93867,7.71638 z m 160.48426,-87.76523 c 14.20075,-3.19304 24.79489,-10.3805 30.95321,-20.9998 2.82524,-4.8718 2.91599,-5.45082 2.91599,-18.60468 0,-13.16648 -0.0888,-13.73113 -2.93995,-18.70212 -8.4361,-14.70818 -27.81305,-23.72446 -44.75108,-20.8231 -13.30998,2.27991 -25.86453,11.02572 -31.2016,21.73584 -2.32036,4.65635 -2.54679,6.23799 -2.54679,17.78938 0,11.55139 0.22643,13.13304 2.54679,17.78939 4.80845,9.6493 16.59573,18.58002 28.89465,21.89228 6.8591,1.84723 7.58559,1.84376 16.12878,-0.0771 z"
       id="path828"
       inkscape:connector-curvature="0"
       transform="matrix(0.26458333,0,0,0.26458333,0,177)" />
    <path
       style="fill:#ffffff;fill-opacity:1;stroke:#000000;stroke-width:1.00724161;stroke-miterlimit:4;stroke-dasharray:none;stroke-opacity:1"
       d="m 139.26039,284.57025 c -7.82025,-1.56371 -11.48901,-5.02278 -10.56293,-9.95921 0.78244,-4.17074 6.60001,-16.02346 14.29966,-29.13411 11.38847,-19.39183 13.82532,-26.66606 14.92658,-44.55726 0.79819,-12.96768 -0.85423,-21.5702 -6.42808,-33.46447 -5.2534,-11.21046 -10.52392,-19.21621 -26.81674,-40.7337 -7.4673,-9.86186 -13.57691,-18.22022 -13.57691,-18.57413 0,-0.35391 22.79181,-0.64346 50.64846,-0.64346 29.83537,0 52.87447,-0.41718 56.06544,-1.01521 5.79478,-1.08601 9.14697,-3.06774 12.27401,-7.256066 2.65149,-3.551385 1.72438,-6.582269 -3.97711,-13.001848 l -4.63259,-5.216035 15.9612,-5.257649 c 17.78719,-5.859138 31.04684,-11.72581 65.66209,-29.051879 12.9546,-6.484198 24.60557,-12.189332 25.89106,-12.678075 1.9008,-0.722683 3.00819,-0.299538 5.93015,2.265976 5.48696,4.817619 8.35759,11.615754 20.01716,47.404051 11.58315,35.553735 17.4374,50.917165 37.23727,97.722595 25.86382,61.14011 29.77123,72.29357 27.72241,79.13188 -1.60016,5.3409 -6.35139,10.42142 -11.63185,12.43805 -4.16884,1.5921 -5.96757,1.58587 -29.87146,-0.10345 -29.5934,-2.09141 -70.76875,-2.36179 -90.30044,-0.59296 -7.46701,0.67623 -32.28828,3.24728 -55.15838,5.71346 -64.07099,6.90903 -84.71684,8.35555 -93.679,6.5635 z m 159.13949,-86.49132 c 4.18378,-1.07004 9.98872,-3.15248 12.89987,-4.62767 7.08002,-3.58773 15.37381,-11.60127 18.50018,-17.87507 2.32036,-4.65635 2.54679,-6.238 2.54679,-17.78939 0,-11.55139 -0.22643,-13.13303 -2.54679,-17.78938 -7.51359,-15.07782 -29.17224,-25.75374 -45.92652,-22.63796 -12.87658,2.39466 -25.78386,11.03069 -31.81258,21.28524 -2.57116,4.37342 -2.68089,5.15689 -2.68089,19.1421 0,14.0501 0.0996,14.75142 2.72951,19.22506 5.44913,9.26925 17.84134,18.40587 29.05394,21.4211 7.21443,1.94008 8.3585,1.91658 17.23649,-0.35403 z"
       id="path830"
       inkscape:connector-curvature="0"
       transform="matrix(0.26458333,0,0,0.26458333,0,177)" />
    <path
       style="fill:#ffffff;fill-opacity:1;stroke:#000000;stroke-width:1.00724161;stroke-miterlimit:4;stroke-dasharray:none;stroke-opacity:1"
       d="m 138.05944,283.09305 c -5.27449,-1.41997 -7.49119,-2.91827 -8.35797,-5.64925 -0.81888,-2.58007 3.42884,-12.26354 12.28098,-27.99676 14.06383,-24.99613 16.515,-32.67836 16.73186,-52.43958 0.23729,-21.62318 -5.11755,-33.12854 -32.62815,-70.10459 -7.13508,-9.59001 -12.97287,-17.60806 -12.97287,-17.81787 0,-0.20982 23.64553,-0.57553 52.54562,-0.8127 39.78899,-0.32651 53.40014,-0.74902 56.06544,-1.74032 3.8847,-1.44484 9.74108,-6.50633 10.57757,-9.141884 0.78069,-2.459731 -1.05029,-6.565372 -5.17014,-11.593101 -2.57577,-3.143396 -3.22498,-4.547242 -2.25089,-4.867371 29.14195,-9.577323 38.84249,-13.680716 77.247,-32.676017 14.63046,-7.23639 27.32612,-13.157074 28.21256,-13.157074 2.17021,0 7.34805,5.586908 9.89536,10.677119 1.13957,2.277189 7.46689,19.926486 14.06071,39.22066 14.49456,42.412498 18.02373,51.679088 36.14901,94.916968 30.58447,72.95926 31.93426,77.43135 25.73043,85.24962 -1.63708,2.06311 -5.045,4.7894 -7.57315,6.05843 l -4.59666,2.30732 -27.0302,-1.65324 c -19.43217,-1.18852 -35.93479,-1.51836 -58.70844,-1.17343 -29.28755,0.44359 -35.32116,0.86939 -79.94981,5.6421 -50.91952,5.44549 -81.70555,8.2024 -90.33689,8.08975 -2.86034,-0.0373 -7.32495,-0.63978 -9.92137,-1.33878 z M 299.6231,198.49927 c 4.80335,-1.39195 10.59073,-3.47839 12.86085,-4.63652 5.4908,-2.8012 14.38626,-11.3235 17.69672,-16.95435 2.55665,-4.34865 2.66888,-5.15279 2.66888,-19.1216 0,-16.54749 -0.4232,-17.89446 -8.25179,-26.26386 -7.9169,-8.46381 -18.37485,-13.80798 -30.20453,-15.43497 -14.35582,-1.97443 -34.07383,7.97321 -42.67858,21.53115 -2.80079,4.41303 -2.83754,4.67423 -2.83754,20.16768 0,15.50088 0.0355,15.75254 2.84197,20.16769 7.36394,11.5848 24.79125,22.40005 37.02043,22.97459 1.18263,0.0556 6.08025,-1.03785 10.88359,-2.42981 z"
       id="path832"
       inkscape:connector-curvature="0"
       transform="matrix(0.26458333,0,0,0.26458333,0,177)" />
  </g>
</svg>
